<svg width="300" height="300" viewBox="0 0 300 300" fill="none" xmlns="http://www.w3.org/2000/svg">
<path d="M0 150C0 67.1573 67.1573 0 150 0V0C232.843 0 300 67.1573 300 150V150C300 232.843 232.843 300 150 300V300C67.1573 300 0 232.843 0 150V150Z" fill="#1E1E1E"/>
<path d="M34.4375 165L39.2102 135.909H43.7557L38.983 165H34.4375ZM21.4119 157.784L22.1648 153.239H44.892L44.1392 157.784H21.4119ZM24.2102 165L28.983 135.909H33.5284L28.7557 165H24.2102ZM23.0739 147.67L23.8409 143.125H46.5682L45.8011 147.67H23.0739ZM49.505 165V135.909H55.6555V159.929H68.1271V165H49.505ZM77.9567 165H71.3658L81.4084 135.909H89.3345L99.3629 165H92.772L85.4851 142.557H85.2578L77.9567 165ZM77.5447 153.565H93.1129V158.366H77.5447V153.565ZM102.864 165V135.909H114.342C116.539 135.909 118.414 136.302 119.967 137.088C121.529 137.865 122.718 138.968 123.532 140.398C124.356 141.818 124.768 143.49 124.768 145.412C124.768 147.344 124.351 149.006 123.518 150.398C122.684 151.78 121.477 152.841 119.896 153.58C118.324 154.318 116.42 154.688 114.185 154.688H106.501V149.744H113.191C114.365 149.744 115.341 149.583 116.117 149.261C116.894 148.939 117.471 148.456 117.85 147.812C118.238 147.169 118.433 146.368 118.433 145.412C118.433 144.446 118.238 143.632 117.85 142.969C117.471 142.306 116.889 141.804 116.103 141.463C115.326 141.113 114.346 140.938 113.163 140.938H109.015V165H102.864ZM118.575 151.761L125.805 165H119.015L111.941 151.761H118.575ZM134.129 165H127.538L137.58 135.909H145.506L155.535 165H148.944L141.657 142.557H141.43L134.129 165ZM133.717 153.565H149.285V158.366H133.717V153.565ZM183.337 146.094H177.115C177.001 145.289 176.769 144.574 176.419 143.949C176.069 143.314 175.619 142.775 175.07 142.33C174.52 141.884 173.886 141.544 173.166 141.307C172.456 141.07 171.684 140.952 170.851 140.952C169.345 140.952 168.034 141.326 166.916 142.074C165.799 142.812 164.932 143.892 164.317 145.312C163.701 146.723 163.393 148.437 163.393 150.455C163.393 152.528 163.701 154.271 164.317 155.682C164.942 157.093 165.813 158.158 166.93 158.878C168.048 159.598 169.34 159.957 170.808 159.957C171.632 159.957 172.394 159.848 173.095 159.631C173.805 159.413 174.435 159.096 174.984 158.679C175.534 158.253 175.988 157.737 176.348 157.131C176.717 156.525 176.973 155.833 177.115 155.057L183.337 155.085C183.176 156.42 182.773 157.708 182.129 158.949C181.495 160.18 180.638 161.283 179.558 162.259C178.488 163.224 177.21 163.991 175.723 164.56C174.246 165.118 172.574 165.398 170.709 165.398C168.114 165.398 165.794 164.811 163.749 163.636C161.713 162.462 160.103 160.762 158.919 158.537C157.745 156.312 157.158 153.617 157.158 150.455C157.158 147.282 157.754 144.583 158.947 142.358C160.141 140.133 161.76 138.437 163.805 137.273C165.851 136.098 168.152 135.511 170.709 135.511C172.394 135.511 173.957 135.748 175.396 136.222C176.845 136.695 178.128 137.386 179.246 138.295C180.363 139.195 181.272 140.298 181.973 141.605C182.683 142.912 183.138 144.408 183.337 146.094ZM192.214 165H185.624L195.666 135.909H203.592L213.621 165H207.03L199.743 142.557H199.516L192.214 165ZM191.803 153.565H207.371V158.366H191.803V153.565ZM217.122 135.909H224.707L232.719 155.455H233.06L241.071 135.909H248.656V165H242.69V146.065H242.449L234.92 164.858H230.858L223.33 145.994H223.088V165H217.122V135.909ZM253.724 165V135.909H265.201C267.407 135.909 269.287 136.33 270.84 137.173C272.393 138.007 273.577 139.167 274.391 140.653C275.215 142.131 275.627 143.835 275.627 145.767C275.627 147.699 275.21 149.403 274.377 150.881C273.544 152.358 272.336 153.509 270.755 154.332C269.183 155.156 267.28 155.568 265.045 155.568H257.729V150.639H264.05C265.234 150.639 266.21 150.436 266.977 150.028C267.753 149.612 268.331 149.039 268.71 148.31C269.098 147.571 269.292 146.723 269.292 145.767C269.292 144.801 269.098 143.958 268.71 143.239C268.331 142.509 267.753 141.946 266.977 141.548C266.2 141.141 265.215 140.938 264.022 140.938H259.874V165H253.724Z" fill="white"/>
</svg>
