<svg width="600" height="376" viewBox="0 0 600 376" fill="none" xmlns="http://www.w3.org/2000/svg">
<path d="M0 0H600V375.587H0V0Z" fill="#1E1E1E"/>
<path d="M162.125 217L167.852 182.091H173.307L167.58 217H162.125ZM146.494 208.341L147.398 202.886H174.67L173.767 208.341H146.494ZM149.852 217L155.58 182.091H161.034L155.307 217H149.852ZM148.489 196.205L149.409 190.75H176.682L175.761 196.205H148.489ZM180.206 217V182.091H187.587V210.915H202.553V217H180.206ZM214.348 217H206.439L218.49 182.091H228.001L240.036 217H232.126L223.382 190.068H223.109L214.348 217ZM213.854 203.278H232.536V209.04H213.854V203.278ZM244.237 217V182.091H258.01C260.646 182.091 262.896 182.562 264.76 183.506C266.635 184.437 268.061 185.761 269.038 187.477C270.027 189.182 270.521 191.187 270.521 193.494C270.521 195.812 270.021 197.807 269.021 199.477C268.021 201.136 266.572 202.409 264.675 203.295C262.788 204.182 260.504 204.625 257.822 204.625H248.601V198.693H256.629C258.038 198.693 259.209 198.5 260.141 198.114C261.072 197.727 261.766 197.148 262.22 196.375C262.686 195.602 262.919 194.642 262.919 193.494C262.919 192.335 262.686 191.358 262.22 190.562C261.766 189.767 261.067 189.165 260.124 188.756C259.192 188.335 258.016 188.125 256.595 188.125H251.618V217H244.237ZM263.089 201.114L271.766 217H263.618L255.129 201.114H263.089ZM281.754 217H273.845L285.896 182.091H295.408L307.442 217H299.533L290.788 190.068H290.516L281.754 217ZM281.26 203.278H299.942V209.04H281.26V203.278ZM340.804 194.312H333.338C333.202 193.347 332.923 192.489 332.503 191.739C332.082 190.977 331.543 190.33 330.884 189.795C330.224 189.261 329.463 188.852 328.599 188.568C327.747 188.284 326.821 188.142 325.821 188.142C324.014 188.142 322.44 188.591 321.099 189.489C319.759 190.375 318.719 191.67 317.98 193.375C317.241 195.068 316.872 197.125 316.872 199.545C316.872 202.034 317.241 204.125 317.98 205.818C318.73 207.511 319.776 208.79 321.116 209.653C322.457 210.517 324.009 210.949 325.77 210.949C326.759 210.949 327.673 210.818 328.514 210.557C329.366 210.295 330.122 209.915 330.781 209.415C331.44 208.903 331.986 208.284 332.418 207.557C332.861 206.83 333.168 206 333.338 205.068L340.804 205.102C340.611 206.705 340.128 208.25 339.355 209.739C338.594 211.216 337.565 212.54 336.27 213.71C334.986 214.869 333.452 215.79 331.668 216.472C329.895 217.142 327.889 217.477 325.651 217.477C322.537 217.477 319.753 216.773 317.298 215.364C314.855 213.955 312.923 211.915 311.503 209.244C310.094 206.574 309.389 203.341 309.389 199.545C309.389 195.739 310.105 192.5 311.537 189.83C312.969 187.159 314.912 185.125 317.366 183.727C319.821 182.318 322.582 181.614 325.651 181.614C327.673 181.614 329.548 181.898 331.276 182.466C333.014 183.034 334.554 183.864 335.895 184.955C337.236 186.034 338.327 187.358 339.168 188.926C340.02 190.494 340.565 192.29 340.804 194.312ZM351.457 217H343.548L355.599 182.091H365.111L377.145 217H369.236L360.491 190.068H360.219L351.457 217ZM350.963 203.278H369.645V209.04H350.963V203.278ZM381.347 182.091H390.449L400.062 205.545H400.472L410.085 182.091H419.188V217H412.028V194.278H411.739L402.705 216.83H397.83L388.795 194.193H388.506V217H381.347V182.091ZM425.268 217V182.091H439.041C441.689 182.091 443.945 182.597 445.808 183.608C447.672 184.608 449.092 186 450.07 187.784C451.058 189.557 451.553 191.602 451.553 193.92C451.553 196.239 451.053 198.284 450.053 200.057C449.053 201.83 447.604 203.21 445.706 204.199C443.82 205.187 441.536 205.682 438.854 205.682H430.075V199.767H437.661C439.081 199.767 440.251 199.523 441.172 199.034C442.104 198.534 442.797 197.847 443.251 196.972C443.717 196.085 443.95 195.068 443.95 193.92C443.95 192.761 443.717 191.75 443.251 190.886C442.797 190.011 442.104 189.335 441.172 188.858C440.24 188.369 439.058 188.125 437.626 188.125H432.649V217H425.268Z" fill="white"/>
</svg>
