<svg width="600" height="600" viewBox="0 0 600 600" fill="none" xmlns="http://www.w3.org/2000/svg">
<path fill-rule="evenodd" clip-rule="evenodd" d="M300 0C465.69 0 600 137.698 600 307.588C600 443.458 514.14 558.719 395.01 599.429C379.8 602.459 374.4 592.853 374.4 584.663C374.4 574.523 374.76 541.404 374.76 500.244C374.76 471.564 365.16 452.846 354.39 443.306C421.2 435.686 491.4 409.673 491.4 291.533C491.4 257.933 479.76 230.515 460.5 208.975C463.62 201.205 473.91 169.919 457.56 127.559C457.56 127.559 432.42 119.317 375.15 159.097C351.18 152.287 325.5 148.86 300 148.74C274.5 148.86 248.85 152.287 224.91 159.097C167.58 119.317 142.38 127.559 142.38 127.559C126.09 169.919 136.38 201.205 139.47 208.975C120.3 230.515 108.57 257.933 108.57 291.533C108.57 409.373 178.62 435.785 245.25 443.555C236.67 451.235 228.9 464.783 226.2 484.673C209.1 492.533 165.66 506.136 138.9 459.126C138.9 459.126 123.03 429.572 92.91 427.412C92.91 427.412 63.66 427.024 90.87 446.104C90.87 446.104 110.52 455.554 124.17 491.104C124.17 491.104 141.78 546.002 225.24 527.402C225.39 553.112 225.66 577.343 225.66 584.663C225.66 592.793 220.14 602.308 205.17 599.458C85.9499 558.808 0 443.488 0 307.588C0 137.698 134.34 0 300 0Z" fill="black"/>
</svg>
