<svg width="600" height="600" viewBox="0 0 600 600" fill="none" xmlns="http://www.w3.org/2000/svg">
<path d="M600 306.658C600 281.991 597.958 263.992 593.537 245.326H306.126V356.656H474.831C471.43 384.324 453.062 425.989 412.246 453.987L411.673 457.716L502.549 526.706L508.844 527.321C566.666 474.989 600 397.989 600 306.658Z" fill="#4285F4"/>
<path d="M306.109 599.987C388.76 599.987 458.145 573.319 508.827 527.319L412.228 453.985C386.379 471.653 351.685 483.985 306.109 483.985C225.16 483.985 156.453 431.653 131.962 359.322L128.372 359.62L33.8801 431.286L32.6443 434.653C82.9831 532.651 186.383 599.987 306.109 599.987Z" fill="#34A853"/>
<path d="M131.969 359.33C125.507 340.664 121.767 320.663 121.767 299.998C121.767 279.33 125.507 259.331 131.629 240.665L131.458 236.688L35.782 163.872L32.6517 165.331C11.9047 205.998 0 251.664 0 299.998C0 348.329 11.9047 393.995 32.6517 434.661L131.969 359.33Z" fill="#FBBC05"/>
<path d="M306.111 115.998C363.593 115.998 402.367 140.33 424.477 160.665L510.869 77.9988C457.811 29.6663 388.762 0 306.111 0C186.383 0 82.9833 67.3319 32.6443 165.329L131.622 240.663C156.454 168.331 225.16 115.998 306.111 115.998Z" fill="#EB4335"/>
</svg>
