<svg width="600" height="681" viewBox="0 0 600 681" fill="none" xmlns="http://www.w3.org/2000/svg">
<path d="M600 0L545.339 612.348L299.633 680.464L54.6047 612.442L0 0H600Z" fill="#E44D26"/>
<path d="M300 628.397L498.543 573.355L545.252 50.0748H300V628.397Z" fill="#F16529"/>
<path d="M193.74 200.304H300V125.191H111.651L113.448 145.342L131.91 352.335H300V277.222H200.605L193.74 200.304ZM210.669 389.893H135.266L145.789 507.833L299.654 550.544L300 550.45V472.3L299.671 472.387L216.017 449.799L210.669 389.893Z" fill="#EBEBEB"/>
<path d="M299.741 352.335H392.236L383.515 449.752L299.739 472.363V550.509L453.727 507.833L454.856 495.142L472.509 297.392L474.341 277.222H299.741V352.335ZM299.741 200.121V200.304H481.176L482.681 183.422L486.106 145.342L487.9 125.191H299.741V200.121Z" fill="white"/>
</svg>
