<svg width="600" height="600" viewBox="0 0 600 600" fill="none" xmlns="http://www.w3.org/2000/svg">
<path d="M580 0H20C8.95431 0 0 8.95432 0 20V580C0 591.046 8.95432 600 20 600H580C591.046 600 600 591.046 600 580V20C600 8.95431 591.046 0 580 0Z" fill="#FFCA28"/>
<path d="M372.121 513.414C366.717 505.541 370.025 495.228 377.989 489.958L386.393 484.397C397.461 477.073 414.267 481.954 424.201 490.755C433.753 499.217 446.833 506.503 461.539 506.503C489.231 506.503 502.088 491.379 502.088 481.35C502.088 454.024 473.811 444.39 460.23 439.764C458.014 439.009 456.193 438.388 454.946 437.846C454.305 437.567 453.339 437.196 452.098 436.723C436.993 430.952 381.263 409.661 381.263 347.942C381.263 279.964 446.867 272.147 461.704 272.147C470.175 272.147 506.805 273.053 531.439 302.326C537.953 310.067 535.077 321.368 526.781 327.158L517.543 333.606C507.503 340.613 493.768 336.321 483.958 328.996C476.816 323.663 469.348 321.602 463.847 321.602C440.111 321.602 435.165 339.002 435.165 346.924C435.165 369.15 460.954 379.112 482.728 387.523C488.426 389.724 493.847 391.817 498.461 393.999C522.197 405.214 557.143 423.57 557.143 481.35C557.143 510.291 532.869 557.147 471.759 557.147C412.004 557.147 384.217 531.033 372.121 513.414Z" fill="#3E3E3E"/>
<path d="M156.121 517.961C151.414 510.674 154.963 501.68 162.288 497.032L174.412 489.339C185.399 482.367 200.625 487.892 210.296 496.598C216.587 502.262 224.626 506.529 234.011 506.529C254.353 506.529 264.765 485.636 264.765 475.614V298.576C264.765 287.53 273.719 278.576 284.765 278.576H301.39C312.436 278.576 321.39 287.53 321.39 298.576V475.614C322.307 502.791 307.234 557.147 240.711 557.147C193.223 557.147 167.278 535.234 156.121 517.961Z" fill="#3E3E3E"/>
</svg>
