<svg width="602" height="318" viewBox="0 0 602 318" fill="none" xmlns="http://www.w3.org/2000/svg">
<path d="M471.318 121.238C475.679 126.07 476.713 134.367 474.433 146.119C472.051 158.36 467.464 167.092 460.668 172.326C453.866 177.561 443.523 180.178 429.633 180.178H408.675L421.54 113.99H445.144C458.236 113.99 466.957 116.408 471.318 121.238ZM176.249 113.99H152.645L139.778 180.178H160.735C174.622 180.178 184.969 177.561 191.771 172.326C198.568 167.092 203.153 158.359 205.535 146.119C207.816 134.366 206.78 126.07 202.42 121.238C198.061 116.408 189.34 113.99 176.249 113.99ZM601 158.812C601 245.969 466.683 316.624 301 316.624C135.317 316.624 1 245.969 1 158.812C1 71.6556 135.317 1 301 1C466.683 1 601 71.6556 601 158.812ZM233.535 169.715C237.104 163.318 239.644 156.258 241.147 148.537C244.789 129.789 242.04 115.187 232.899 104.725C223.763 94.263 209.222 89.0344 189.296 89.0344H123.045L92.3092 247.181H126.762L134.932 205.14H164.443C177.461 205.14 188.173 203.773 196.582 201.034C204.991 198.299 212.632 193.715 219.512 187.274C225.283 181.966 229.955 176.117 233.535 169.715ZM354.793 205.14L369.096 131.541C372.007 116.573 369.823 105.743 362.553 99.0583C355.278 92.3797 342.065 89.0344 322.904 89.0344H292.454L300.628 46.9875H266.448L235.706 205.139H269.886L287.494 114.534H314.813C323.558 114.534 329.275 115.98 331.96 118.876C334.646 121.773 335.216 127.202 333.669 135.16L320.071 205.139H354.793V205.14ZM501.796 104.726C492.661 94.2642 478.12 89.0356 458.193 89.0356H391.942L361.204 247.182H395.658L403.827 205.141H433.339C446.356 205.141 457.069 203.774 465.477 201.035C473.886 198.3 481.527 193.716 488.407 187.275C494.184 181.966 498.852 176.118 502.43 169.716C506.004 163.319 508.538 156.259 510.042 148.538C513.685 129.789 510.937 115.187 501.796 104.726Z" fill="#6d21ad" stroke="#878DBE" stroke-width="1.5625"/>
</svg>
